<svg version="1.1" xmlns="http://www.w3.org/2000/svg" xmlns:xlink="http://www.w3.org/1999/xlink" width="450" height="522"><defs><clipPath id="nXwXmwIucxvJ"><path fill="none" stroke="none" d=" M 0 0 L 450 0 L 450 522 L 0 522 L 0 0 Z"/></clipPath></defs><g transform="scale(1,1)" clip-path="url(#nXwXmwIucxvJ)"><g><rect fill="rgb(255,255,255)" stroke="none" x="0" y="0" width="450" height="522" fill-opacity="1"/><path fill="none" stroke="rgb(192,192,192)" paint-order="fill stroke markers" d=" M 63.5 0.5 L 63.5 522.5 M 63.5 0.5 L 63.5 522.5 M 253.5 0.5 L 253.5 522.5 M 348.5 0.5 L 348.5 522.5 M 442.5 0.5 L 442.5 522.5" stroke-opacity="1" stroke-linecap="round" stroke-linejoin="round" stroke-miterlimit="10"/><path fill="none" stroke="rgb(192,192,192)" paint-order="fill stroke markers" d=" M 6.5 0.5 L 6.5 522.5 M 25.5 0.5 L 25.5 522.5 M 44.5 0.5 L 44.5 522.5 M 82.5 0.5 L 82.5 522.5 M 101.5 0.5 L 101.5 522.5 M 120.5 0.5 L 120.5 522.5 M 139.5 0.5 L 139.5 522.5 M 177.5 0.5 L 177.5 522.5 M 196.5 0.5 L 196.5 522.5 M 215.5 0.5 L 215.5 522.5 M 234.5 0.5 L 234.5 522.5 M 272.5 0.5 L 272.5 522.5 M 291.5 0.5 L 291.5 522.5 M 310.5 0.5 L 310.5 522.5 M 329.5 0.5 L 329.5 522.5 M 367.5 0.5 L 367.5 522.5 M 386.5 0.5 L 386.5 522.5 M 405.5 0.5 L 405.5 522.5 M 423.5 0.5 L 423.5 522.5" stroke-opacity="0.23529411764705882" stroke-linecap="round" stroke-linejoin="round" stroke-miterlimit="10"/><path fill="none" stroke="rgb(192,192,192)" paint-order="fill stroke markers" d=" M 0.5 54.5 L 450.5 54.5 M 0.5 54.5 L 450.5 54.5 M 0.5 149.5 L 450.5 149.5 M 0.5 244.5 L 450.5 244.5 M 0.5 338.5 L 450.5 338.5 M 0.5 433.5 L 450.5 433.5" stroke-opacity="1" stroke-linecap="round" stroke-linejoin="round" stroke-miterlimit="10"/><path fill="none" stroke="rgb(192,192,192)" paint-order="fill stroke markers" d=" M 0.5 16.5 L 450.5 16.5 M 0.5 16.5 L 450.5 16.5 M 0.5 35.5 L 450.5 35.5 M 0.5 73.5 L 450.5 73.5 M 0.5 92.5 L 450.5 92.5 M 0.5 111.5 L 450.5 111.5 M 0.5 130.5 L 450.5 130.5 M 0.5 168.5 L 450.5 168.5 M 0.5 187.5 L 450.5 187.5 M 0.5 206.5 L 450.5 206.5 M 0.5 225.5 L 450.5 225.5 M 0.5 263.5 L 450.5 263.5 M 0.5 282.5 L 450.5 282.5 M 0.5 301.5 L 450.5 301.5 M 0.5 319.5 L 450.5 319.5 M 0.5 357.5 L 450.5 357.5 M 0.5 376.5 L 450.5 376.5 M 0.5 395.5 L 450.5 395.5 M 0.5 414.5 L 450.5 414.5 M 0.5 452.5 L 450.5 452.5 M 0.5 471.5 L 450.5 471.5 M 0.5 490.5 L 450.5 490.5 M 0.5 509.5 L 450.5 509.5" stroke-opacity="0.23529411764705882" stroke-linecap="round" stroke-linejoin="round" stroke-miterlimit="10"/><path fill="none" stroke="rgb(37,37,37)" paint-order="fill stroke markers" d=" M 158.5 2.5 L 158.5 522.5" stroke-opacity="1" stroke-miterlimit="10"/><path fill="none" stroke="rgb(37,37,37)" paint-order="fill stroke markers" d=" M 158.5 1.5 L 154.5 5.5" stroke-opacity="1" stroke-miterlimit="10"/><path fill="none" stroke="rgb(37,37,37)" paint-order="fill stroke markers" d=" M 158.5 1.5 L 162.5 5.5" stroke-opacity="1" stroke-miterlimit="10"/><path fill="none" stroke="rgb(37,37,37)" paint-order="fill stroke markers" d=" M 0.5 623.5 L 448.5 623.5" stroke-opacity="1" stroke-miterlimit="10"/><path fill="none" stroke="rgb(37,37,37)" paint-order="fill stroke markers" d=" M 449.5 623.5 L 445.5 619.5" stroke-opacity="1" stroke-miterlimit="10"/><path fill="none" stroke="rgb(37,37,37)" paint-order="fill stroke markers" d=" M 449.5 623.5 L 445.5 627.5" stroke-opacity="1" stroke-miterlimit="10"/><text fill="rgb(37,37,37)" stroke="none" font-family="geogebra-sans-serif, sans-serif" font-size="12px" font-style="normal" font-weight="normal" text-decoration="normal" x="52" y="516" text-anchor="start" dominant-baseline="alphabetic" fill-opacity="1">–0.5</text><text fill="none" stroke="rgb(255,255,255)" font-family="geogebra-sans-serif, sans-serif" font-size="12px" font-style="normal" font-weight="normal" text-decoration="normal" x="52" y="516" text-anchor="start" dominant-baseline="alphabetic" stroke-opacity="1" stroke-linejoin="bevel" stroke-miterlimit="10" stroke-width="3">–0.5</text><text fill="rgb(37,37,37)" stroke="none" font-family="geogebra-sans-serif, sans-serif" font-size="12px" font-style="normal" font-weight="normal" text-decoration="normal" x="52" y="516" text-anchor="start" dominant-baseline="alphabetic" fill-opacity="1">–0.5</text><text fill="rgb(37,37,37)" stroke="none" font-family="geogebra-sans-serif, sans-serif" font-size="12px" font-style="normal" font-weight="normal" text-decoration="normal" x="245" y="516" text-anchor="start" dominant-baseline="alphabetic" fill-opacity="1">0.5</text><text fill="none" stroke="rgb(255,255,255)" font-family="geogebra-sans-serif, sans-serif" font-size="12px" font-style="normal" font-weight="normal" text-decoration="normal" x="245" y="516" text-anchor="start" dominant-baseline="alphabetic" stroke-opacity="1" stroke-linejoin="bevel" stroke-miterlimit="10" stroke-width="3">0.5</text><text fill="rgb(37,37,37)" stroke="none" font-family="geogebra-sans-serif, sans-serif" font-size="12px" font-style="normal" font-weight="normal" text-decoration="normal" x="245" y="516" text-anchor="start" dominant-baseline="alphabetic" fill-opacity="1">0.5</text><text fill="rgb(37,37,37)" stroke="none" font-family="geogebra-sans-serif, sans-serif" font-size="12px" font-style="normal" font-weight="normal" text-decoration="normal" x="346" y="516" text-anchor="start" dominant-baseline="alphabetic" fill-opacity="1">1</text><text fill="none" stroke="rgb(255,255,255)" font-family="geogebra-sans-serif, sans-serif" font-size="12px" font-style="normal" font-weight="normal" text-decoration="normal" x="346" y="516" text-anchor="start" dominant-baseline="alphabetic" stroke-opacity="1" stroke-linejoin="bevel" stroke-miterlimit="10" stroke-width="3">1</text><text fill="rgb(37,37,37)" stroke="none" font-family="geogebra-sans-serif, sans-serif" font-size="12px" font-style="normal" font-weight="normal" text-decoration="normal" x="346" y="516" text-anchor="start" dominant-baseline="alphabetic" fill-opacity="1">1</text><text fill="rgb(37,37,37)" stroke="none" font-family="geogebra-sans-serif, sans-serif" font-size="12px" font-style="normal" font-weight="normal" text-decoration="normal" x="144" y="438" text-anchor="start" dominant-baseline="alphabetic" fill-opacity="1">1</text><text fill="none" stroke="rgb(255,255,255)" font-family="geogebra-sans-serif, sans-serif" font-size="12px" font-style="normal" font-weight="normal" text-decoration="normal" x="144" y="438" text-anchor="start" dominant-baseline="alphabetic" stroke-opacity="1" stroke-linejoin="bevel" stroke-miterlimit="10" stroke-width="3">1</text><text fill="rgb(37,37,37)" stroke="none" font-family="geogebra-sans-serif, sans-serif" font-size="12px" font-style="normal" font-weight="normal" text-decoration="normal" x="144" y="438" text-anchor="start" dominant-baseline="alphabetic" fill-opacity="1">1</text><text fill="rgb(37,37,37)" stroke="none" font-family="geogebra-sans-serif, sans-serif" font-size="12px" font-style="normal" font-weight="normal" text-decoration="normal" x="134" y="343" text-anchor="start" dominant-baseline="alphabetic" fill-opacity="1">1.5</text><text fill="none" stroke="rgb(255,255,255)" font-family="geogebra-sans-serif, sans-serif" font-size="12px" font-style="normal" font-weight="normal" text-decoration="normal" x="134" y="343" text-anchor="start" dominant-baseline="alphabetic" stroke-opacity="1" stroke-linejoin="bevel" stroke-miterlimit="10" stroke-width="3">1.5</text><text fill="rgb(37,37,37)" stroke="none" font-family="geogebra-sans-serif, sans-serif" font-size="12px" font-style="normal" font-weight="normal" text-decoration="normal" x="134" y="343" text-anchor="start" dominant-baseline="alphabetic" fill-opacity="1">1.5</text><text fill="rgb(37,37,37)" stroke="none" font-family="geogebra-sans-serif, sans-serif" font-size="12px" font-style="normal" font-weight="normal" text-decoration="normal" x="144" y="249" text-anchor="start" dominant-baseline="alphabetic" fill-opacity="1">2</text><text fill="none" stroke="rgb(255,255,255)" font-family="geogebra-sans-serif, sans-serif" font-size="12px" font-style="normal" font-weight="normal" text-decoration="normal" x="144" y="249" text-anchor="start" dominant-baseline="alphabetic" stroke-opacity="1" stroke-linejoin="bevel" stroke-miterlimit="10" stroke-width="3">2</text><text fill="rgb(37,37,37)" stroke="none" font-family="geogebra-sans-serif, sans-serif" font-size="12px" font-style="normal" font-weight="normal" text-decoration="normal" x="144" y="249" text-anchor="start" dominant-baseline="alphabetic" fill-opacity="1">2</text><text fill="rgb(37,37,37)" stroke="none" font-family="geogebra-sans-serif, sans-serif" font-size="12px" font-style="normal" font-weight="normal" text-decoration="normal" x="134" y="154" text-anchor="start" dominant-baseline="alphabetic" fill-opacity="1">2.5</text><text fill="none" stroke="rgb(255,255,255)" font-family="geogebra-sans-serif, sans-serif" font-size="12px" font-style="normal" font-weight="normal" text-decoration="normal" x="134" y="154" text-anchor="start" dominant-baseline="alphabetic" stroke-opacity="1" stroke-linejoin="bevel" stroke-miterlimit="10" stroke-width="3">2.5</text><text fill="rgb(37,37,37)" stroke="none" font-family="geogebra-sans-serif, sans-serif" font-size="12px" font-style="normal" font-weight="normal" text-decoration="normal" x="134" y="154" text-anchor="start" dominant-baseline="alphabetic" fill-opacity="1">2.5</text><text fill="rgb(37,37,37)" stroke="none" font-family="geogebra-sans-serif, sans-serif" font-size="12px" font-style="normal" font-weight="normal" text-decoration="normal" x="144" y="59" text-anchor="start" dominant-baseline="alphabetic" fill-opacity="1">3</text><text fill="none" stroke="rgb(255,255,255)" font-family="geogebra-sans-serif, sans-serif" font-size="12px" font-style="normal" font-weight="normal" text-decoration="normal" x="144" y="59" text-anchor="start" dominant-baseline="alphabetic" stroke-opacity="1" stroke-linejoin="bevel" stroke-miterlimit="10" stroke-width="3">3</text><text fill="rgb(37,37,37)" stroke="none" font-family="geogebra-sans-serif, sans-serif" font-size="12px" font-style="normal" font-weight="normal" text-decoration="normal" x="144" y="59" text-anchor="start" dominant-baseline="alphabetic" fill-opacity="1">3</text><path fill="none" stroke="rgb(51,51,255)" paint-order="fill stroke markers" d=" M 158.23972459201616 325.54078415510315 L 161.71875 322.061563935819 M 161.71875 322.061563935819 L 165.234375 318.5445498039753 L 168.75 315.025130778003 M 168.75 315.025130778003 L 172.265625 311.50208882378286 L 175.78125 307.97419461691095 L 179.296875 304.4402036144286 L 182.8125 300.8988519927823 L 186.328125 297.3488524142146 L 189.84375 293.7888895807504 L 193.359375 290.2176155311155 L 196.875 286.6336446311849 L 200.390625 283.0355482027562 L 203.90625 279.421848728398 L 207.421875 275.79101356159356 L 210.9375 272.141448061101 L 214.453125 268.4714880560001 L 217.96875 264.7793915328413 L 221.484375 261.0633294180538 L 225 257.32137530656536 M 225 257.32137530656536 L 228.515625 253.55149396047904 L 232.03125 249.75152836841852 L 235.546875 245.91918511520453 L 239.0625 242.0520177608072 L 242.578125 238.14740786433026 L 246.09375 234.20254320955786 L 249.609375 230.21439268859143 L 253.125 226.17967717294908 L 256.640625 222.0948355385404 L 260.15625 217.95598480034204 L 263.671875 213.75887303795741 L 267.1875 209.4988234315988 L 270.703125 205.17066724674987 L 274.21875 200.7686629579946 L 277.734375 196.28639781978734 L 281.25 191.7166669728636 L 284.765625 187.05132346651072 L 288.28125 182.28109014377407 L 291.796875 177.39532080961033 L 295.3125 172.38169288798088 L 298.828125 167.22580589594526 L 302.34375 161.91064786514164 L 305.859375 156.41587242603208 L 309.375 150.71679738033095 L 312.890625 144.78298127857215 L 316.40625 138.57613806362775 L 319.921875 132.0469698310094 L 323.4375 125.13014128652401 L 326.953125 117.73586047281816 L 330.46875 109.73476017469989 L 333.984375 100.92812687055789 L 337.5 90.98117267730038 M 337.5 90.98117267730038 L 339.2578125 85.39935572939044 L 341.015625 79.24063232269373 L 342.7734375 72.26801056627914 L 344.53125 64.01957089890539 M 344.53125 64.01957089890539 L 345.41015625 59.113444581406725 L 346.2890625 53.30474678782866 L 347.16796875 45.75676661195098 L 347.607421875 40.4458992755126 L 347.8271484375 36.72239336688881 L 348.046875 29.355553150370838 M 348.046875 29.355553150370838 L 348.0571949223447 27.37620008219494" stroke-opacity="0.8" stroke-linecap="round" stroke-linejoin="round" stroke-miterlimit="10" stroke-width="2.5"/><text fill="rgb(51,51,255)" stroke="none" font-family="geogebra-sans-serif, sans-serif" font-size="16px" font-style="normal" font-weight="normal" text-decoration="normal" x="161" y="322" text-anchor="start" dominant-baseline="alphabetic" fill-opacity="1">SeatAngle</text><text fill="none" stroke="rgb(255,255,255)" font-family="geogebra-sans-serif, sans-serif" font-size="16px" font-style="normal" font-weight="normal" text-decoration="normal" x="161" y="322" text-anchor="start" dominant-baseline="alphabetic" stroke-opacity="1" stroke-linejoin="bevel" stroke-miterlimit="10" stroke-width="3">SeatAngle</text><text fill="rgb(51,51,255)" stroke="none" font-family="geogebra-sans-serif, sans-serif" font-size="16px" font-style="normal" font-weight="normal" text-decoration="normal" x="161" y="322" text-anchor="start" dominant-baseline="alphabetic" fill-opacity="1">SeatAngle</text><path fill="none" stroke="rgb(128,128,128)" paint-order="fill stroke markers" d=" M 158.23972459201616 433.88789599950815 L 161.71875 433.8560057447187 M 161.71875 433.8560057447187 L 165.234375 433.7588905127559 L 168.75 433.5962460595381 M 168.75 433.5962460595381 L 172.265625 433.36756691918333 L 175.78125 433.07213849265065 L 179.296875 432.70903080089136 L 182.8125 432.27709026581863 L 186.328125 431.77492937511533 L 189.84375 431.2009140465751 L 193.359375 430.5531484618151 L 196.875 429.82945708627824 L 200.390625 429.0273635305717 L 203.90625 428.144065835043 L 207.421875 427.17640767221167 L 210.9375 426.1208448566165 L 214.453125 424.9734064242451 L 217.96875 423.7296493881096 L 221.484375 422.3846060852163 L 225 420.9327227933785 M 225 420.9327227933785 L 228.515625 419.3677880013222 L 232.03125 417.68284834559427 L 235.546875 415.87010976070667 L 239.0625 413.92082079512465 L 242.578125 411.82513428517996 L 246.09375 409.57194259751884 L 249.609375 407.1486803738044 L 253.125 404.54108703592345 L 256.640625 401.73291909139965 L 260.15625 398.7055993124451 L 263.671875 395.43778585471273 L 267.1875 391.90483890731593 L 270.703125 388.078154896676 L 274.21875 383.9243276654729 L 277.734375 379.4040809896069 L 281.25 374.47089507751025 L 284.765625 369.06921784465055 L 288.28125 363.13210418142137 L 291.796875 356.5780539259405 L 295.3125 349.3067062526332 L 298.828125 341.1928676399343 L 302.34375 332.0780539447803 L 304.1015625 327.08374327242393 L 305.859375 321.75822413203247 L 307.6171875 316.06588704190585 L 309.375 309.96549914318695 L 311.1328125 303.4090111671746 L 312.890625 296.34003990011513 L 314.6484375 288.6919164390958 L 316.40625 280.38514539533367 L 318.1640625 271.32405279553063 L 319.921875 261.39229772261797 L 320.80078125 256.05645467292675 L 321.6796875 250.44676270021466 L 322.55859375 244.5397623311162 L 323.4375 238.30908218171817 L 324.31640625 231.7249576317625 L 325.1953125 224.75364858635362 L 326.07421875 217.3567303354199 L 326.953125 209.49022347981315 L 327.83203125 201.10351791051897 L 328.7109375 192.13803064772827 L 329.58984375 182.52551609216653 L 330.029296875 177.45213760737403 L 330.46875 172.18591706081543 L 330.908203125 166.71454910479633 L 331.34765625 161.02460146556155 L 331.787109375 155.1013787684277 L 332.2265625 148.9287657014725 L 332.666015625 142.48904570825795 L 333.10546875 135.76269056601217 L 333.544921875 128.7281151584504 L 333.984375 121.36139042922383 L 334.423828125 113.63590581895636 L 334.86328125 105.5219703329858 L 335.302734375 96.9863386047499 L 335.7421875 87.99164470064534 L 336.181640625 78.49572166445955 L 336.4013671875 73.54511021584142 L 336.62109375 68.45077851475605 L 336.8408203125 63.20570965931324 L 337.060546875 57.80239800871664 L 337.2802734375 52.23280454389851 L 337.5 46.48830714254075 M 337.5 46.48830714254075 L 337.7197265625 40.55964506933299 L 337.939453125 34.43685686901267 L 338.1591796875 28.10921071517737 L 338.37890625 21.565126107458013 L 338.5986328125 14.792085617753855 L 338.818359375 7.776535155778674 L 339.0380859375 0.5037709462362727 L 339.2578125 -7.042188926610606 M 339.301300993125 -9.999999999999998" stroke-opacity="0.8" stroke-linecap="round" stroke-linejoin="round" stroke-miterlimit="10" stroke-width="2.5"/><text fill="rgb(128,128,128)" stroke="none" font-family="geogebra-sans-serif, sans-serif" font-size="16px" font-style="normal" font-weight="normal" text-decoration="normal" x="161" y="433" text-anchor="start" dominant-baseline="alphabetic" fill-opacity="1">SeatAngleChange</text><text fill="none" stroke="rgb(255,255,255)" font-family="geogebra-sans-serif, sans-serif" font-size="16px" font-style="normal" font-weight="normal" text-decoration="normal" x="161" y="433" text-anchor="start" dominant-baseline="alphabetic" stroke-opacity="1" stroke-linejoin="bevel" stroke-miterlimit="10" stroke-width="3">SeatAngleChange</text><text fill="rgb(128,128,128)" stroke="none" font-family="geogebra-sans-serif, sans-serif" font-size="16px" font-style="normal" font-weight="normal" text-decoration="normal" x="161" y="433" text-anchor="start" dominant-baseline="alphabetic" fill-opacity="1">SeatAngleChange</text></g></g></svg>