<svg version="1.1" xmlns="http://www.w3.org/2000/svg" xmlns:xlink="http://www.w3.org/1999/xlink" width="495" height="447"><defs><clipPath id="nTCWhmhcpnDG"><path fill="none" stroke="none" d=" M 0 0 L 495 0 L 495 447 L 0 447 L 0 0 Z"/></clipPath></defs><g transform="scale(1,1)" clip-path="url(#nTCWhmhcpnDG)"><g><rect fill="rgb(255,255,255)" stroke="none" x="0" y="0" width="495" height="447" fill-opacity="1"/><path fill="none" stroke="rgb(192,192,192)" paint-order="fill stroke markers" d=" M 7.5 0.5 L 7.5 447.5 M 7.5 0.5 L 7.5 447.5 M 83.5 0.5 L 83.5 447.5 M 159.5 0.5 L 159.5 447.5 M 312.5 0.5 L 312.5 447.5 M 389.5 0.5 L 389.5 447.5 M 465.5 0.5 L 465.5 447.5" stroke-opacity="1" stroke-linecap="round" stroke-linejoin="round" stroke-miterlimit="10"/><path fill="none" stroke="rgb(192,192,192)" paint-order="fill stroke markers" d=" M 22.5 0.5 L 22.5 447.5 M 37.5 0.5 L 37.5 447.5 M 53.5 0.5 L 53.5 447.5 M 68.5 0.5 L 68.5 447.5 M 98.5 0.5 L 98.5 447.5 M 114.5 0.5 L 114.5 447.5 M 129.5 0.5 L 129.5 447.5 M 144.5 0.5 L 144.5 447.5 M 175.5 0.5 L 175.5 447.5 M 190.5 0.5 L 190.5 447.5 M 205.5 0.5 L 205.5 447.5 M 221.5 0.5 L 221.5 447.5 M 251.5 0.5 L 251.5 447.5 M 266.5 0.5 L 266.5 447.5 M 282.5 0.5 L 282.5 447.5 M 297.5 0.5 L 297.5 447.5 M 328.5 0.5 L 328.5 447.5 M 343.5 0.5 L 343.5 447.5 M 358.5 0.5 L 358.5 447.5 M 373.5 0.5 L 373.5 447.5 M 404.5 0.5 L 404.5 447.5 M 419.5 0.5 L 419.5 447.5 M 435.5 0.5 L 435.5 447.5 M 450.5 0.5 L 450.5 447.5 M 480.5 0.5 L 480.5 447.5" stroke-opacity="0.23529411764705882" stroke-linecap="round" stroke-linejoin="round" stroke-miterlimit="10"/><path fill="none" stroke="rgb(192,192,192)" paint-order="fill stroke markers" d=" M 0.5 45.5 L 495.5 45.5 M 0.5 45.5 L 495.5 45.5 M 0.5 121.5 L 495.5 121.5 M 0.5 274.5 L 495.5 274.5 M 0.5 350.5 L 495.5 350.5 M 0.5 427.5 L 495.5 427.5" stroke-opacity="1" stroke-linecap="round" stroke-linejoin="round" stroke-miterlimit="10"/><path fill="none" stroke="rgb(192,192,192)" paint-order="fill stroke markers" d=" M 0.5 14.5 L 495.5 14.5 M 0.5 14.5 L 495.5 14.5 M 0.5 30.5 L 495.5 30.5 M 0.5 60.5 L 495.5 60.5 M 0.5 75.5 L 495.5 75.5 M 0.5 91.5 L 495.5 91.5 M 0.5 106.5 L 495.5 106.5 M 0.5 136.5 L 495.5 136.5 M 0.5 152.5 L 495.5 152.5 M 0.5 167.5 L 495.5 167.5 M 0.5 182.5 L 495.5 182.5 M 0.5 213.5 L 495.5 213.5 M 0.5 228.5 L 495.5 228.5 M 0.5 243.5 L 495.5 243.5 M 0.5 259.5 L 495.5 259.5 M 0.5 289.5 L 495.5 289.5 M 0.5 305.5 L 495.5 305.5 M 0.5 320.5 L 495.5 320.5 M 0.5 335.5 L 495.5 335.5 M 0.5 366.5 L 495.5 366.5 M 0.5 381.5 L 495.5 381.5 M 0.5 396.5 L 495.5 396.5 M 0.5 412.5 L 495.5 412.5 M 0.5 442.5 L 495.5 442.5" stroke-opacity="0.23529411764705882" stroke-linecap="round" stroke-linejoin="round" stroke-miterlimit="10"/><path fill="none" stroke="rgb(37,37,37)" paint-order="fill stroke markers" d=" M 236.5 2.5 L 236.5 447.5" stroke-opacity="1" stroke-miterlimit="10"/><path fill="none" stroke="rgb(37,37,37)" paint-order="fill stroke markers" d=" M 236.5 1.5 L 232.5 5.5" stroke-opacity="1" stroke-miterlimit="10"/><path fill="none" stroke="rgb(37,37,37)" paint-order="fill stroke markers" d=" M 236.5 1.5 L 240.5 5.5" stroke-opacity="1" stroke-miterlimit="10"/><path fill="none" stroke="rgb(37,37,37)" paint-order="fill stroke markers" d=" M 0.5 198.5 L 493.5 198.5" stroke-opacity="1" stroke-miterlimit="10"/><path fill="none" stroke="rgb(37,37,37)" paint-order="fill stroke markers" d=" M 494.5 198.5 L 490.5 194.5" stroke-opacity="1" stroke-miterlimit="10"/><path fill="none" stroke="rgb(37,37,37)" paint-order="fill stroke markers" d=" M 494.5 198.5 L 490.5 202.5" stroke-opacity="1" stroke-miterlimit="10"/><text fill="rgb(37,37,37)" stroke="none" font-family="geogebra-sans-serif, sans-serif" font-size="12px" font-style="normal" font-weight="normal" text-decoration="normal" x="78" y="214" text-anchor="start" dominant-baseline="alphabetic" fill-opacity="1">–1</text><text fill="none" stroke="rgb(255,255,255)" font-family="geogebra-sans-serif, sans-serif" font-size="12px" font-style="normal" font-weight="normal" text-decoration="normal" x="78" y="214" text-anchor="start" dominant-baseline="alphabetic" stroke-opacity="1" stroke-linejoin="bevel" stroke-miterlimit="10" stroke-width="3">–1</text><text fill="rgb(37,37,37)" stroke="none" font-family="geogebra-sans-serif, sans-serif" font-size="12px" font-style="normal" font-weight="normal" text-decoration="normal" x="78" y="214" text-anchor="start" dominant-baseline="alphabetic" fill-opacity="1">–1</text><text fill="rgb(37,37,37)" stroke="none" font-family="geogebra-sans-serif, sans-serif" font-size="12px" font-style="normal" font-weight="normal" text-decoration="normal" x="148" y="214" text-anchor="start" dominant-baseline="alphabetic" fill-opacity="1">–0.5</text><text fill="none" stroke="rgb(255,255,255)" font-family="geogebra-sans-serif, sans-serif" font-size="12px" font-style="normal" font-weight="normal" text-decoration="normal" x="148" y="214" text-anchor="start" dominant-baseline="alphabetic" stroke-opacity="1" stroke-linejoin="bevel" stroke-miterlimit="10" stroke-width="3">–0.5</text><text fill="rgb(37,37,37)" stroke="none" font-family="geogebra-sans-serif, sans-serif" font-size="12px" font-style="normal" font-weight="normal" text-decoration="normal" x="148" y="214" text-anchor="start" dominant-baseline="alphabetic" fill-opacity="1">–0.5</text><text fill="rgb(37,37,37)" stroke="none" font-family="geogebra-sans-serif, sans-serif" font-size="12px" font-style="normal" font-weight="normal" text-decoration="normal" x="304" y="214" text-anchor="start" dominant-baseline="alphabetic" fill-opacity="1">0.5</text><text fill="none" stroke="rgb(255,255,255)" font-family="geogebra-sans-serif, sans-serif" font-size="12px" font-style="normal" font-weight="normal" text-decoration="normal" x="304" y="214" text-anchor="start" dominant-baseline="alphabetic" stroke-opacity="1" stroke-linejoin="bevel" stroke-miterlimit="10" stroke-width="3">0.5</text><text fill="rgb(37,37,37)" stroke="none" font-family="geogebra-sans-serif, sans-serif" font-size="12px" font-style="normal" font-weight="normal" text-decoration="normal" x="304" y="214" text-anchor="start" dominant-baseline="alphabetic" fill-opacity="1">0.5</text><text fill="rgb(37,37,37)" stroke="none" font-family="geogebra-sans-serif, sans-serif" font-size="12px" font-style="normal" font-weight="normal" text-decoration="normal" x="387" y="214" text-anchor="start" dominant-baseline="alphabetic" fill-opacity="1">1</text><text fill="none" stroke="rgb(255,255,255)" font-family="geogebra-sans-serif, sans-serif" font-size="12px" font-style="normal" font-weight="normal" text-decoration="normal" x="387" y="214" text-anchor="start" dominant-baseline="alphabetic" stroke-opacity="1" stroke-linejoin="bevel" stroke-miterlimit="10" stroke-width="3">1</text><text fill="rgb(37,37,37)" stroke="none" font-family="geogebra-sans-serif, sans-serif" font-size="12px" font-style="normal" font-weight="normal" text-decoration="normal" x="387" y="214" text-anchor="start" dominant-baseline="alphabetic" fill-opacity="1">1</text><text fill="rgb(37,37,37)" stroke="none" font-family="geogebra-sans-serif, sans-serif" font-size="12px" font-style="normal" font-weight="normal" text-decoration="normal" x="457" y="214" text-anchor="start" dominant-baseline="alphabetic" fill-opacity="1">1.5</text><text fill="none" stroke="rgb(255,255,255)" font-family="geogebra-sans-serif, sans-serif" font-size="12px" font-style="normal" font-weight="normal" text-decoration="normal" x="457" y="214" text-anchor="start" dominant-baseline="alphabetic" stroke-opacity="1" stroke-linejoin="bevel" stroke-miterlimit="10" stroke-width="3">1.5</text><text fill="rgb(37,37,37)" stroke="none" font-family="geogebra-sans-serif, sans-serif" font-size="12px" font-style="normal" font-weight="normal" text-decoration="normal" x="457" y="214" text-anchor="start" dominant-baseline="alphabetic" fill-opacity="1">1.5</text><text fill="rgb(37,37,37)" stroke="none" font-family="geogebra-sans-serif, sans-serif" font-size="12px" font-style="normal" font-weight="normal" text-decoration="normal" x="204" y="432" text-anchor="start" dominant-baseline="alphabetic" fill-opacity="1">–1.5</text><text fill="none" stroke="rgb(255,255,255)" font-family="geogebra-sans-serif, sans-serif" font-size="12px" font-style="normal" font-weight="normal" text-decoration="normal" x="204" y="432" text-anchor="start" dominant-baseline="alphabetic" stroke-opacity="1" stroke-linejoin="bevel" stroke-miterlimit="10" stroke-width="3">–1.5</text><text fill="rgb(37,37,37)" stroke="none" font-family="geogebra-sans-serif, sans-serif" font-size="12px" font-style="normal" font-weight="normal" text-decoration="normal" x="204" y="432" text-anchor="start" dominant-baseline="alphabetic" fill-opacity="1">–1.5</text><text fill="rgb(37,37,37)" stroke="none" font-family="geogebra-sans-serif, sans-serif" font-size="12px" font-style="normal" font-weight="normal" text-decoration="normal" x="214" y="355" text-anchor="start" dominant-baseline="alphabetic" fill-opacity="1">–1</text><text fill="none" stroke="rgb(255,255,255)" font-family="geogebra-sans-serif, sans-serif" font-size="12px" font-style="normal" font-weight="normal" text-decoration="normal" x="214" y="355" text-anchor="start" dominant-baseline="alphabetic" stroke-opacity="1" stroke-linejoin="bevel" stroke-miterlimit="10" stroke-width="3">–1</text><text fill="rgb(37,37,37)" stroke="none" font-family="geogebra-sans-serif, sans-serif" font-size="12px" font-style="normal" font-weight="normal" text-decoration="normal" x="214" y="355" text-anchor="start" dominant-baseline="alphabetic" fill-opacity="1">–1</text><text fill="rgb(37,37,37)" stroke="none" font-family="geogebra-sans-serif, sans-serif" font-size="12px" font-style="normal" font-weight="normal" text-decoration="normal" x="204" y="279" text-anchor="start" dominant-baseline="alphabetic" fill-opacity="1">–0.5</text><text fill="none" stroke="rgb(255,255,255)" font-family="geogebra-sans-serif, sans-serif" font-size="12px" font-style="normal" font-weight="normal" text-decoration="normal" x="204" y="279" text-anchor="start" dominant-baseline="alphabetic" stroke-opacity="1" stroke-linejoin="bevel" stroke-miterlimit="10" stroke-width="3">–0.5</text><text fill="rgb(37,37,37)" stroke="none" font-family="geogebra-sans-serif, sans-serif" font-size="12px" font-style="normal" font-weight="normal" text-decoration="normal" x="204" y="279" text-anchor="start" dominant-baseline="alphabetic" fill-opacity="1">–0.5</text><text fill="rgb(37,37,37)" stroke="none" font-family="geogebra-sans-serif, sans-serif" font-size="12px" font-style="normal" font-weight="normal" text-decoration="normal" x="212" y="126" text-anchor="start" dominant-baseline="alphabetic" fill-opacity="1">0.5</text><text fill="none" stroke="rgb(255,255,255)" font-family="geogebra-sans-serif, sans-serif" font-size="12px" font-style="normal" font-weight="normal" text-decoration="normal" x="212" y="126" text-anchor="start" dominant-baseline="alphabetic" stroke-opacity="1" stroke-linejoin="bevel" stroke-miterlimit="10" stroke-width="3">0.5</text><text fill="rgb(37,37,37)" stroke="none" font-family="geogebra-sans-serif, sans-serif" font-size="12px" font-style="normal" font-weight="normal" text-decoration="normal" x="212" y="126" text-anchor="start" dominant-baseline="alphabetic" fill-opacity="1">0.5</text><text fill="rgb(37,37,37)" stroke="none" font-family="geogebra-sans-serif, sans-serif" font-size="12px" font-style="normal" font-weight="normal" text-decoration="normal" x="222" y="50" text-anchor="start" dominant-baseline="alphabetic" fill-opacity="1">1</text><text fill="none" stroke="rgb(255,255,255)" font-family="geogebra-sans-serif, sans-serif" font-size="12px" font-style="normal" font-weight="normal" text-decoration="normal" x="222" y="50" text-anchor="start" dominant-baseline="alphabetic" stroke-opacity="1" stroke-linejoin="bevel" stroke-miterlimit="10" stroke-width="3">1</text><text fill="rgb(37,37,37)" stroke="none" font-family="geogebra-sans-serif, sans-serif" font-size="12px" font-style="normal" font-weight="normal" text-decoration="normal" x="222" y="50" text-anchor="start" dominant-baseline="alphabetic" fill-opacity="1">1</text><text fill="rgb(37,37,37)" stroke="none" font-family="geogebra-sans-serif, sans-serif" font-size="12px" font-style="normal" font-weight="normal" text-decoration="normal" x="222" y="214" text-anchor="start" dominant-baseline="alphabetic" fill-opacity="1">0</text><text fill="none" stroke="rgb(255,255,255)" font-family="geogebra-sans-serif, sans-serif" font-size="12px" font-style="normal" font-weight="normal" text-decoration="normal" x="222" y="214" text-anchor="start" dominant-baseline="alphabetic" stroke-opacity="1" stroke-linejoin="bevel" stroke-miterlimit="10" stroke-width="3">0</text><text fill="rgb(37,37,37)" stroke="none" font-family="geogebra-sans-serif, sans-serif" font-size="12px" font-style="normal" font-weight="normal" text-decoration="normal" x="222" y="214" text-anchor="start" dominant-baseline="alphabetic" fill-opacity="1">0</text><path fill="none" stroke="rgb(46,125,50)" paint-order="fill stroke markers" d=" M 389.24059909674634 198.12922334283803 C 389.24059909674634 282.533502948177 320.81741129293044 350.9566907519931 236.4131316875918 350.9566907519931 C 152.00885208225316 350.9566907519931 83.58566427843724 282.533502948177 83.58566427843724 198.12922334283803 C 83.58566427843724 113.7249437374991 152.00885208225316 45.301755933682955 236.4131316875918 45.301755933682955 C 320.81741129293044 45.301755933682955 389.24059909674634 113.7249437374991 389.24059909674634 198.12922334283803 Z" stroke-opacity="0.8" stroke-linecap="round" stroke-linejoin="round" stroke-miterlimit="10" stroke-width="2.5"/><text fill="rgb(0,0,0)" stroke="none" font-family="geogebra-sans-serif, sans-serif" font-size="16px" font-style="normal" font-weight="normal" text-decoration="normal" x="211" y="124" text-anchor="start" dominant-baseline="alphabetic" fill-opacity="1">f</text><text fill="none" stroke="rgb(255,255,255)" font-family="geogebra-sans-serif, sans-serif" font-size="16px" font-style="normal" font-weight="normal" text-decoration="normal" x="211" y="124" text-anchor="start" dominant-baseline="alphabetic" stroke-opacity="1" stroke-linejoin="bevel" stroke-miterlimit="10" stroke-width="3">f</text><text fill="rgb(0,0,0)" stroke="none" font-family="geogebra-sans-serif, sans-serif" font-size="16px" font-style="normal" font-weight="normal" text-decoration="normal" x="211" y="124" text-anchor="start" dominant-baseline="alphabetic" fill-opacity="1">f</text><path fill="none" stroke="rgb(0,0,0)" paint-order="fill stroke markers" d=" M 236.4131316875918 198.12922334283803 L 159.25878009021844 66.20712199402988" stroke-opacity="0.6980392156862745" stroke-linecap="round" stroke-linejoin="round" stroke-miterlimit="10" stroke-width="2.5"/><path fill="rgb(97,97,97)" stroke="none" paint-order="stroke fill markers" d=" M 164.25878009021844 66.20712199402988 C 164.25878009021844 68.96854574318384 162.0202038393724 71.20712199402988 159.25878009021844 71.20712199402988 C 156.49735634106446 71.20712199402988 154.25878009021844 68.96854574318384 154.25878009021844 66.20712199402988 C 154.25878009021844 63.445698244875906 156.49735634106446 61.207121994029876 159.25878009021844 61.207121994029876 C 162.0202038393724 61.207121994029876 164.25878009021844 63.445698244875906 164.25878009021844 66.20712199402988 Z" fill-opacity="1"/><path fill="none" stroke="rgb(0,0,0)" paint-order="fill stroke markers" d=" M 164.25878009021844 66.20712199402988 C 164.25878009021844 68.96854574318384 162.0202038393724 71.20712199402988 159.25878009021844 71.20712199402988 C 156.49735634106446 71.20712199402988 154.25878009021844 68.96854574318384 154.25878009021844 66.20712199402988 C 154.25878009021844 63.445698244875906 156.49735634106446 61.207121994029876 159.25878009021844 61.207121994029876 C 162.0202038393724 61.207121994029876 164.25878009021844 63.445698244875906 164.25878009021844 66.20712199402988 Z" stroke-opacity="1" stroke-linecap="round" stroke-linejoin="round" stroke-miterlimit="10"/><text fill="rgb(97,97,97)" stroke="none" font-family="geogebra-sans-serif, sans-serif" font-size="16px" font-style="normal" font-weight="normal" text-decoration="normal" x="94" y="93" text-anchor="start" dominant-baseline="alphabetic" fill-opacity="1">Headrest = cos(α), sin(α)</text><text fill="none" stroke="rgb(255,255,255)" font-family="geogebra-sans-serif, sans-serif" font-size="16px" font-style="normal" font-weight="normal" text-decoration="normal" x="94" y="93" text-anchor="start" dominant-baseline="alphabetic" stroke-opacity="1" stroke-linejoin="bevel" stroke-miterlimit="10" stroke-width="3">Headrest = cos(α), sin(α)</text><text fill="rgb(97,97,97)" stroke="none" font-family="geogebra-sans-serif, sans-serif" font-size="16px" font-style="normal" font-weight="normal" text-decoration="normal" x="94" y="93" text-anchor="start" dominant-baseline="alphabetic" fill-opacity="1">Headrest = cos(α), sin(α)</text><path fill="rgb(97,97,97)" stroke="none" paint-order="stroke fill markers" d=" M 241.4131316875918 198.12922334283803 C 241.4131316875918 200.890647091992 239.17455543674578 203.12922334283803 236.4131316875918 203.12922334283803 C 233.65170793843782 203.12922334283803 231.4131316875918 200.890647091992 231.4131316875918 198.12922334283803 C 231.4131316875918 195.36779959368405 233.65170793843782 193.12922334283803 236.4131316875918 193.12922334283803 C 239.17455543674578 193.12922334283803 241.4131316875918 195.36779959368405 241.4131316875918 198.12922334283803 Z" fill-opacity="1"/><path fill="none" stroke="rgb(0,0,0)" paint-order="fill stroke markers" d=" M 241.4131316875918 198.12922334283803 C 241.4131316875918 200.890647091992 239.17455543674578 203.12922334283803 236.4131316875918 203.12922334283803 C 233.65170793843782 203.12922334283803 231.4131316875918 200.890647091992 231.4131316875918 198.12922334283803 C 231.4131316875918 195.36779959368405 233.65170793843782 193.12922334283803 236.4131316875918 193.12922334283803 C 239.17455543674578 193.12922334283803 241.4131316875918 195.36779959368405 241.4131316875918 198.12922334283803 Z" stroke-opacity="1" stroke-linecap="round" stroke-linejoin="round" stroke-miterlimit="10"/></g></g></svg>