<svg version="1.1" xmlns="http://www.w3.org/2000/svg" xmlns:xlink="http://www.w3.org/1999/xlink" width="479" height="447"><defs><clipPath id="eGRewhzTNZbz"><path fill="none" stroke="none" d=" M 0 0 L 479 0 L 479 447 L 0 447 L 0 0 Z"/></clipPath></defs><g transform="scale(1,1)" clip-path="url(#eGRewhzTNZbz)"><g><rect fill="rgb(255,255,255)" stroke="none" x="0" y="0" width="479" height="447" fill-opacity="1"/><path fill="none" stroke="rgb(192,192,192)" paint-order="fill stroke markers" d=" M -10.5 0.5 L -10.5 447.5 M -10.5 0.5 L -10.5 447.5 M 84.5 0.5 L 84.5 447.5 M 179.5 0.5 L 179.5 447.5 M 273.5 0.5 L 273.5 447.5 M 368.5 0.5 L 368.5 447.5 M 463.5 0.5 L 463.5 447.5" stroke-opacity="1" stroke-linecap="round" stroke-linejoin="round" stroke-miterlimit="10"/><path fill="none" stroke="rgb(192,192,192)" paint-order="fill stroke markers" d=" M 8.5 0.5 L 8.5 447.5 M 27.5 0.5 L 27.5 447.5 M 46.5 0.5 L 46.5 447.5 M 65.5 0.5 L 65.5 447.5 M 103.5 0.5 L 103.5 447.5 M 122.5 0.5 L 122.5 447.5 M 141.5 0.5 L 141.5 447.5 M 160.5 0.5 L 160.5 447.5 M 198.5 0.5 L 198.5 447.5 M 216.5 0.5 L 216.5 447.5 M 235.5 0.5 L 235.5 447.5 M 254.5 0.5 L 254.5 447.5 M 292.5 0.5 L 292.5 447.5 M 311.5 0.5 L 311.5 447.5 M 330.5 0.5 L 330.5 447.5 M 349.5 0.5 L 349.5 447.5 M 387.5 0.5 L 387.5 447.5 M 406.5 0.5 L 406.5 447.5 M 425.5 0.5 L 425.5 447.5 M 444.5 0.5 L 444.5 447.5" stroke-opacity="0.23529411764705882" stroke-linecap="round" stroke-linejoin="round" stroke-miterlimit="10"/><path fill="none" stroke="rgb(192,192,192)" paint-order="fill stroke markers" d=" M 0.5 39.5 L 479.5 39.5 M 0.5 39.5 L 479.5 39.5 M 0.5 134.5 L 479.5 134.5 M 0.5 324.5 L 479.5 324.5 M 0.5 418.5 L 479.5 418.5" stroke-opacity="1" stroke-linecap="round" stroke-linejoin="round" stroke-miterlimit="10"/><path fill="none" stroke="rgb(192,192,192)" paint-order="fill stroke markers" d=" M 0.5 1.5 L 479.5 1.5 M 0.5 1.5 L 479.5 1.5 M 0.5 20.5 L 479.5 20.5 M 0.5 58.5 L 479.5 58.5 M 0.5 77.5 L 479.5 77.5 M 0.5 96.5 L 479.5 96.5 M 0.5 115.5 L 479.5 115.5 M 0.5 153.5 L 479.5 153.5 M 0.5 172.5 L 479.5 172.5 M 0.5 191.5 L 479.5 191.5 M 0.5 210.5 L 479.5 210.5 M 0.5 248.5 L 479.5 248.5 M 0.5 267.5 L 479.5 267.5 M 0.5 286.5 L 479.5 286.5 M 0.5 305.5 L 479.5 305.5 M 0.5 343.5 L 479.5 343.5 M 0.5 362.5 L 479.5 362.5 M 0.5 380.5 L 479.5 380.5 M 0.5 399.5 L 479.5 399.5 M 0.5 437.5 L 479.5 437.5" stroke-opacity="0.23529411764705882" stroke-linecap="round" stroke-linejoin="round" stroke-miterlimit="10"/><path fill="none" stroke="rgb(37,37,37)" paint-order="fill stroke markers" d=" M 0.5 229.5 L 477.5 229.5" stroke-opacity="1" stroke-miterlimit="10"/><path fill="none" stroke="rgb(37,37,37)" paint-order="fill stroke markers" d=" M 478.5 229.5 L 474.5 225.5" stroke-opacity="1" stroke-miterlimit="10"/><path fill="none" stroke="rgb(37,37,37)" paint-order="fill stroke markers" d=" M 478.5 229.5 L 474.5 233.5" stroke-opacity="1" stroke-miterlimit="10"/><text fill="rgb(37,37,37)" stroke="none" font-family="geogebra-sans-serif, sans-serif" font-size="12px" font-style="normal" font-weight="normal" text-decoration="normal" x="76" y="245" text-anchor="start" dominant-baseline="alphabetic" fill-opacity="1">1.5</text><text fill="none" stroke="rgb(255,255,255)" font-family="geogebra-sans-serif, sans-serif" font-size="12px" font-style="normal" font-weight="normal" text-decoration="normal" x="76" y="245" text-anchor="start" dominant-baseline="alphabetic" stroke-opacity="1" stroke-linejoin="bevel" stroke-miterlimit="10" stroke-width="3">1.5</text><text fill="rgb(37,37,37)" stroke="none" font-family="geogebra-sans-serif, sans-serif" font-size="12px" font-style="normal" font-weight="normal" text-decoration="normal" x="76" y="245" text-anchor="start" dominant-baseline="alphabetic" fill-opacity="1">1.5</text><text fill="rgb(37,37,37)" stroke="none" font-family="geogebra-sans-serif, sans-serif" font-size="12px" font-style="normal" font-weight="normal" text-decoration="normal" x="177" y="245" text-anchor="start" dominant-baseline="alphabetic" fill-opacity="1">2</text><text fill="none" stroke="rgb(255,255,255)" font-family="geogebra-sans-serif, sans-serif" font-size="12px" font-style="normal" font-weight="normal" text-decoration="normal" x="177" y="245" text-anchor="start" dominant-baseline="alphabetic" stroke-opacity="1" stroke-linejoin="bevel" stroke-miterlimit="10" stroke-width="3">2</text><text fill="rgb(37,37,37)" stroke="none" font-family="geogebra-sans-serif, sans-serif" font-size="12px" font-style="normal" font-weight="normal" text-decoration="normal" x="177" y="245" text-anchor="start" dominant-baseline="alphabetic" fill-opacity="1">2</text><text fill="rgb(37,37,37)" stroke="none" font-family="geogebra-sans-serif, sans-serif" font-size="12px" font-style="normal" font-weight="normal" text-decoration="normal" x="265" y="245" text-anchor="start" dominant-baseline="alphabetic" fill-opacity="1">2.5</text><text fill="none" stroke="rgb(255,255,255)" font-family="geogebra-sans-serif, sans-serif" font-size="12px" font-style="normal" font-weight="normal" text-decoration="normal" x="265" y="245" text-anchor="start" dominant-baseline="alphabetic" stroke-opacity="1" stroke-linejoin="bevel" stroke-miterlimit="10" stroke-width="3">2.5</text><text fill="rgb(37,37,37)" stroke="none" font-family="geogebra-sans-serif, sans-serif" font-size="12px" font-style="normal" font-weight="normal" text-decoration="normal" x="265" y="245" text-anchor="start" dominant-baseline="alphabetic" fill-opacity="1">2.5</text><text fill="rgb(37,37,37)" stroke="none" font-family="geogebra-sans-serif, sans-serif" font-size="12px" font-style="normal" font-weight="normal" text-decoration="normal" x="366" y="245" text-anchor="start" dominant-baseline="alphabetic" fill-opacity="1">3</text><text fill="none" stroke="rgb(255,255,255)" font-family="geogebra-sans-serif, sans-serif" font-size="12px" font-style="normal" font-weight="normal" text-decoration="normal" x="366" y="245" text-anchor="start" dominant-baseline="alphabetic" stroke-opacity="1" stroke-linejoin="bevel" stroke-miterlimit="10" stroke-width="3">3</text><text fill="rgb(37,37,37)" stroke="none" font-family="geogebra-sans-serif, sans-serif" font-size="12px" font-style="normal" font-weight="normal" text-decoration="normal" x="366" y="245" text-anchor="start" dominant-baseline="alphabetic" fill-opacity="1">3</text><text fill="rgb(37,37,37)" stroke="none" font-family="geogebra-sans-serif, sans-serif" font-size="12px" font-style="normal" font-weight="normal" text-decoration="normal" x="455" y="245" text-anchor="start" dominant-baseline="alphabetic" fill-opacity="1">3.5</text><text fill="none" stroke="rgb(255,255,255)" font-family="geogebra-sans-serif, sans-serif" font-size="12px" font-style="normal" font-weight="normal" text-decoration="normal" x="455" y="245" text-anchor="start" dominant-baseline="alphabetic" stroke-opacity="1" stroke-linejoin="bevel" stroke-miterlimit="10" stroke-width="3">3.5</text><text fill="rgb(37,37,37)" stroke="none" font-family="geogebra-sans-serif, sans-serif" font-size="12px" font-style="normal" font-weight="normal" text-decoration="normal" x="455" y="245" text-anchor="start" dominant-baseline="alphabetic" fill-opacity="1">3.5</text><text fill="rgb(37,37,37)" stroke="none" font-family="geogebra-sans-serif, sans-serif" font-size="12px" font-style="normal" font-weight="normal" text-decoration="normal" x="13" y="423" text-anchor="start" dominant-baseline="alphabetic" fill-opacity="1">–1</text><text fill="none" stroke="rgb(255,255,255)" font-family="geogebra-sans-serif, sans-serif" font-size="12px" font-style="normal" font-weight="normal" text-decoration="normal" x="13" y="423" text-anchor="start" dominant-baseline="alphabetic" stroke-opacity="1" stroke-linejoin="bevel" stroke-miterlimit="10" stroke-width="3">–1</text><text fill="rgb(37,37,37)" stroke="none" font-family="geogebra-sans-serif, sans-serif" font-size="12px" font-style="normal" font-weight="normal" text-decoration="normal" x="13" y="423" text-anchor="start" dominant-baseline="alphabetic" fill-opacity="1">–1</text><text fill="rgb(37,37,37)" stroke="none" font-family="geogebra-sans-serif, sans-serif" font-size="12px" font-style="normal" font-weight="normal" text-decoration="normal" x="3" y="329" text-anchor="start" dominant-baseline="alphabetic" fill-opacity="1">–0.5</text><text fill="none" stroke="rgb(255,255,255)" font-family="geogebra-sans-serif, sans-serif" font-size="12px" font-style="normal" font-weight="normal" text-decoration="normal" x="3" y="329" text-anchor="start" dominant-baseline="alphabetic" stroke-opacity="1" stroke-linejoin="bevel" stroke-miterlimit="10" stroke-width="3">–0.5</text><text fill="rgb(37,37,37)" stroke="none" font-family="geogebra-sans-serif, sans-serif" font-size="12px" font-style="normal" font-weight="normal" text-decoration="normal" x="3" y="329" text-anchor="start" dominant-baseline="alphabetic" fill-opacity="1">–0.5</text><text fill="rgb(37,37,37)" stroke="none" font-family="geogebra-sans-serif, sans-serif" font-size="12px" font-style="normal" font-weight="normal" text-decoration="normal" x="11" y="139" text-anchor="start" dominant-baseline="alphabetic" fill-opacity="1">0.5</text><text fill="none" stroke="rgb(255,255,255)" font-family="geogebra-sans-serif, sans-serif" font-size="12px" font-style="normal" font-weight="normal" text-decoration="normal" x="11" y="139" text-anchor="start" dominant-baseline="alphabetic" stroke-opacity="1" stroke-linejoin="bevel" stroke-miterlimit="10" stroke-width="3">0.5</text><text fill="rgb(37,37,37)" stroke="none" font-family="geogebra-sans-serif, sans-serif" font-size="12px" font-style="normal" font-weight="normal" text-decoration="normal" x="11" y="139" text-anchor="start" dominant-baseline="alphabetic" fill-opacity="1">0.5</text><text fill="rgb(37,37,37)" stroke="none" font-family="geogebra-sans-serif, sans-serif" font-size="12px" font-style="normal" font-weight="normal" text-decoration="normal" x="21" y="44" text-anchor="start" dominant-baseline="alphabetic" fill-opacity="1">1</text><text fill="none" stroke="rgb(255,255,255)" font-family="geogebra-sans-serif, sans-serif" font-size="12px" font-style="normal" font-weight="normal" text-decoration="normal" x="21" y="44" text-anchor="start" dominant-baseline="alphabetic" stroke-opacity="1" stroke-linejoin="bevel" stroke-miterlimit="10" stroke-width="3">1</text><text fill="rgb(37,37,37)" stroke="none" font-family="geogebra-sans-serif, sans-serif" font-size="12px" font-style="normal" font-weight="normal" text-decoration="normal" x="21" y="44" text-anchor="start" dominant-baseline="alphabetic" fill-opacity="1">1</text><path fill="none" stroke="rgb(0,0,255)" paint-order="fill stroke markers" d=" M 97.7387331770014 229.36474081618644 L 101.0390625 226.06457834144712 M 101.0390625 226.06457834144712 L 104.78125 222.3238450928736 M 104.78125 222.3238450928736 L 108.5234375 218.58585766349978 L 112.265625 214.85207379894393 L 116.0078125 211.12394960551228 L 119.75 207.40293898234427 M 119.75 207.40293898234427 L 123.4921875 203.6904930544194 L 127.234375 199.98805960664512 L 130.9765625 196.29708251924777 L 134.71875 192.61900120468607 L 138.4609375 188.95525004630693 L 142.203125 185.3072578389629 L 145.9453125 181.67644723180837 L 149.6875 178.06423417349316 L 153.4296875 174.4720273599686 L 157.171875 170.90122768512245 L 160.9140625 167.35322769445636 L 164.65625 163.82941104201882 L 168.3984375 160.331151950806 L 172.140625 156.8598146768402 L 175.8828125 153.4167529771354 L 179.62499999999994 150.0033095817572 L 183.3671875 146.620815670183 L 187.109375 143.2705903521669 L 190.85156250000006 139.95394015331107 L 194.59375 136.67215850554555 L 198.33593749999994 133.42652524271347 L 202.078125 130.21830610145952 L 205.8203125 127.04875222761676 L 209.5625 123.91909968828234 L 213.3046875 120.83056898977492 L 217.04687500000006 117.78436460165922 L 220.7890625 114.781674487026 L 224.53124999999994 111.82366963920789 L 228.2734375 108.91150362511414 L 232.015625 106.04631213536096 L 235.75781249999994 103.22921254137309 L 239.5 100.46130345962979 M 239.5 100.46130345962979 L 243.24218749999994 97.74366432322503 L 246.984375 95.07735496090825 L 250.72656249999994 92.46341518377136 L 254.46875 89.90286437974115 L 258.2109375 87.39670111603758 L 261.953125 84.94590274975045 L 265.6953125 82.55142504668899 L 269.43750000000006 80.21420180865036 L 273.1796875 77.93514450925477 L 276.92187499999994 75.71514193848736 L 280.6640625 73.55505985608679 L 284.40625 71.45574065391517 L 288.14843750000006 69.4180030274405 L 291.890625 67.44264165646112 L 295.63281250000006 65.53042689519498 L 299.375 63.682104471856036 L 303.1171875 61.898395197834105 L 306.859375 60.1799946865915 L 310.6015625 58.527573082387335 L 314.34375000000006 56.94177479893301 L 318.08593749999994 55.423218268083474 L 321.82812500000006 53.97249569865971 L 325.57031250000006 52.59017284549887 L 329.31249999999994 51.27678878881994 L 333.05468750000006 50.03285572399275 L 336.79687500000006 48.8588587617912 L 340.53906250000006 47.755255739209105 L 344.28125000000006 46.722477040912224 L 348.02343750000006 45.760925431396316 L 351.76562500000006 44.87097589791645 L 355.50781249999994 44.05297550424885 L 359.25000000000006 43.307243255342655 M 359.25000000000006 43.307243255342655 L 362.99218749999994 42.63406997291378 L 366.73437500000006 42.03371818202979 L 370.47656250000006 41.50642200873034 L 374.21875000000006 41.05238708872187 L 377.96093750000006 40.67179048718401 L 381.70312499999994 40.36478062971699 L 385.44531250000006 40.13147724445875 L 389.18749999999994 39.97197131539309 M 389.18749999999994 39.97197131539309 L 392.92968749999994 39.88632504686751 M 392.92968749999994 39.88632504686751 L 395.39594131424184 39.870276210512486" stroke-opacity="0.8" stroke-linecap="round" stroke-linejoin="round" stroke-miterlimit="10" stroke-width="2.5"/><text fill="rgb(0,0,255)" stroke="none" font-family="geogebra-sans-serif, sans-serif" font-size="16px" font-style="normal" font-weight="normal" text-decoration="normal" x="101" y="226" text-anchor="start" dominant-baseline="alphabetic" fill-opacity="1">LegroomLoss</text><text fill="none" stroke="rgb(255,255,255)" font-family="geogebra-sans-serif, sans-serif" font-size="16px" font-style="normal" font-weight="normal" text-decoration="normal" x="101" y="226" text-anchor="start" dominant-baseline="alphabetic" stroke-opacity="1" stroke-linejoin="bevel" stroke-miterlimit="10" stroke-width="3">LegroomLoss</text><text fill="rgb(0,0,255)" stroke="none" font-family="geogebra-sans-serif, sans-serif" font-size="16px" font-style="normal" font-weight="normal" text-decoration="normal" x="101" y="226" text-anchor="start" dominant-baseline="alphabetic" fill-opacity="1">LegroomLoss</text><path fill="none" stroke="rgb(211,47,47)" paint-order="fill stroke markers" d=" M 97.7387331770014 39.870278105457174 L 101.0390625 43.1704405801965 M 101.0390625 43.1704405801965 L 104.78125 46.91117382877002 M 104.78125 46.91117382877002 L 108.5234375 50.649161258143835 L 112.265625 54.38294512269968 L 116.0078125 58.111069316131335 L 119.75 61.83207993929935 M 119.75 61.83207993929935 L 123.4921875 65.54452586722422 L 127.234375 69.24695931499849 L 130.9765625 72.93793640239588 L 134.71875 76.61601771695754 L 138.4609375 80.27976887533669 L 142.203125 83.92776108268072 L 145.9453125 87.55857168983525 L 149.6875 91.17078474815045 L 153.4296875 94.76299156167502 L 157.171875 98.33379123652117 L 160.9140625 101.88179122718725 L 164.65625 105.40560787962478 L 168.3984375 108.9038669708376 L 172.140625 112.37520424480344 L 175.8828125 115.81826594450823 L 179.62499999999994 119.2317093398864 L 183.3671875 122.61420325146064 L 187.109375 125.96442856947672 L 190.85156250000006 129.28107876833258 L 194.59375 132.56286041609803 L 198.33593749999994 135.80849367893018 L 202.078125 139.01671282018413 L 205.8203125 142.18626669402687 L 209.5625 145.31591923336129 L 213.3046875 148.4044499318687 L 217.04687500000006 151.45065431998438 L 220.7890625 154.45334443461763 L 224.53124999999994 157.4113492824357 L 228.2734375 160.32351529652948 L 232.015625 163.18870678628264 L 235.75781249999994 166.00580638027054 L 239.5 168.77371546201383 M 239.5 168.77371546201383 L 243.24218749999994 171.49135459841858 L 246.984375 174.15766396073536 L 250.72656249999994 176.77160373787225 L 254.46875 179.33215454190247 L 258.2109375 181.83831780560604 L 261.953125 184.28911617189317 L 265.6953125 186.68359387495462 L 269.43750000000006 189.02081711299326 L 273.1796875 191.29987441238885 L 276.92187499999994 193.51987698315625 L 280.6640625 195.67995906555683 L 284.40625 197.77927826772844 L 288.14843750000006 199.8170158942031 L 291.890625 201.7923772651825 L 295.63281250000006 203.70459202644864 L 299.375 205.55291444978758 L 303.1171875 207.3366237238095 L 306.859375 209.05502423505212 L 310.6015625 210.70744583925628 L 314.34375000000006 212.2932441227106 L 318.08593749999994 213.81180065356014 L 321.82812500000006 215.2625232229839 L 325.57031250000006 216.64484607614474 L 329.31249999999994 217.95823013282367 L 333.05468750000006 219.20216319765086 L 336.79687500000006 220.37616015985242 L 340.53906250000006 221.4797631824345 L 344.28125000000006 222.5125418807314 L 348.02343750000006 223.4740934902473 L 351.76562500000006 224.36404302372716 L 355.50781249999994 225.18204341739477 L 359.25000000000006 225.92777566630096 M 359.25000000000006 225.92777566630096 L 362.99218749999994 226.60094894872984 L 366.73437500000006 227.20130073961383 L 370.47656250000006 227.72859691291328 L 374.21875000000006 228.18263183292174 L 377.96093750000006 228.5632284344596 L 381.70312499999994 228.87023829192663 L 385.44531250000006 229.10354167718486 L 389.18749999999994 229.26304760625052 M 389.18749999999994 229.26304760625052 L 392.92968749999994 229.3486938747761 M 392.92968749999994 229.3486938747761 L 395.39594510413116 229.36474271113113" stroke-opacity="0.8" stroke-linecap="round" stroke-linejoin="round" stroke-miterlimit="10" stroke-width="2.5"/><text fill="rgb(211,47,47)" stroke="none" font-family="geogebra-sans-serif, sans-serif" font-size="16px" font-style="normal" font-weight="normal" text-decoration="normal" x="101" y="43" text-anchor="start" dominant-baseline="alphabetic" fill-opacity="1">Legroom</text><text fill="none" stroke="rgb(255,255,255)" font-family="geogebra-sans-serif, sans-serif" font-size="16px" font-style="normal" font-weight="normal" text-decoration="normal" x="101" y="43" text-anchor="start" dominant-baseline="alphabetic" stroke-opacity="1" stroke-linejoin="bevel" stroke-miterlimit="10" stroke-width="3">Legroom</text><text fill="rgb(211,47,47)" stroke="none" font-family="geogebra-sans-serif, sans-serif" font-size="16px" font-style="normal" font-weight="normal" text-decoration="normal" x="101" y="43" text-anchor="start" dominant-baseline="alphabetic" fill-opacity="1">Legroom</text><path fill="none" stroke="rgb(97,97,97)" paint-order="fill stroke markers" d=" M 97.7387331770014 418.85920921174977 L 101.0390625 418.83046982156964 M 101.0390625 418.83046982156964 L 104.78125 418.7283574714205 M 104.78125 418.7283574714205 L 108.5234375 418.5523968312772 L 112.265625 418.30265652251865 L 116.0078125 417.9792339392234 L 119.75 417.5822552101872 M 119.75 417.5822552101872 L 123.4921875 417.1118751497357 L 127.234375 416.5682771973493 L 130.9765625 415.9516733461255 L 134.71875 415.2623040601053 L 138.4609375 414.50043818049653 L 142.203125 413.6663728208313 L 145.9453125 412.76043325109686 L 149.6875 411.78297277088643 L 153.4296875 410.7343725716189 L 157.171875 409.61504158788125 L 160.9140625 408.4254163379518 L 164.65625 407.1659607535662 L 168.3984375 405.8371659989923 L 172.140625 404.4395502794857 L 175.8828125 402.973658639199 L 179.62499999999994 401.4400627486251 L 183.3671875 399.83936068165576 L 187.109375 398.1721766823444 L 190.85156250000006 396.4391609214622 L 194.59375 394.64098924294376 L 198.33593749999994 392.77836290032064 L 202.078125 390.852008283245 L 205.8203125 388.862676634212 L 209.5625 386.8111437555882 L 213.3046875 384.69820970706394 L 217.04687500000006 382.5246984936442 L 220.7890625 380.2914577443026 L 224.53124999999994 377.99935838142136 L 228.2734375 375.64929428114795 L 232.015625 373.2421819248002 L 235.75781249999994 370.77896004145526 L 239.5 368.2605892418628 M 239.5 368.2605892418628 L 243.24218749999994 365.68805164382525 L 246.984375 363.0623504891889 L 250.72656249999994 360.3845097525995 L 254.46875 357.6555737421704 L 258.2109375 354.876606692222 L 261.953125 352.0486923482503 L 265.6953125 349.17293354428614 L 269.43750000000006 346.2504517728102 L 273.1796875 343.28238674739254 L 276.92187499999994 340.26989595822454 L 280.6640625 337.21415422071976 L 284.40625 334.1163532173579 L 288.14843750000006 330.97770103295045 L 291.890625 327.79942168351016 L 295.63281250000006 324.58275463890755 L 299.375 321.3289543395009 L 303.1171875 318.03928970692755 L 306.859375 314.71504364924806 L 310.6015625 311.35751256063617 L 314.34375000000006 307.96800581580885 L 318.08593749999994 304.5478452593948 L 321.82812500000006 301.0983646904394 L 325.57031250000006 297.6209093422479 L 329.31249999999994 294.1168353577696 L 333.05468750000006 290.58750926072696 L 336.79687500000006 287.03430742269717 L 340.53906250000006 283.4586155263527 L 344.28125000000006 279.86182802507045 L 348.02343750000006 276.2453475991212 L 351.76562500000006 272.6105846086506 L 355.50781249999994 268.95895654366427 L 359.25000000000006 265.2918874712335 M 359.25000000000006 265.2918874712335 L 362.99218749999994 261.6108074801358 L 366.73437500000006 257.9171521231461 L 370.47656250000006 254.21236185719852 L 374.21875000000006 250.49788148163458 L 377.96093750000006 246.77515957475867 L 381.70312499999994 243.04564792891895 L 385.44531250000006 239.3108009843356 L 389.18749999999994 235.57207526189634 M 389.18749999999994 235.57207526189634 L 392.92968749999994 231.83092879513998 M 392.92968749999994 231.83092879513998 L 395.39594510413116 229.36474271113113" stroke-opacity="0.8" stroke-linecap="round" stroke-linejoin="round" stroke-miterlimit="10" stroke-width="2.5"/><text fill="rgb(97,97,97)" stroke="none" font-family="geogebra-sans-serif, sans-serif" font-size="16px" font-style="normal" font-weight="normal" text-decoration="normal" x="101" y="418" text-anchor="start" dominant-baseline="alphabetic" fill-opacity="1">LegroomChange</text><text fill="none" stroke="rgb(255,255,255)" font-family="geogebra-sans-serif, sans-serif" font-size="16px" font-style="normal" font-weight="normal" text-decoration="normal" x="101" y="418" text-anchor="start" dominant-baseline="alphabetic" stroke-opacity="1" stroke-linejoin="bevel" stroke-miterlimit="10" stroke-width="3">LegroomChange</text><text fill="rgb(97,97,97)" stroke="none" font-family="geogebra-sans-serif, sans-serif" font-size="16px" font-style="normal" font-weight="normal" text-decoration="normal" x="101" y="418" text-anchor="start" dominant-baseline="alphabetic" fill-opacity="1">LegroomChange</text></g></g></svg>